 <svg version="1.0" xmlns="http://www.w3.org/2000/svg" width="auto" height="auto" viewBox="0 0 700.000000 700.000000" preserveAspectRatio="xMidYMid meet">
<metadata>
The MohToken logo
</metadata>
<g transform="translate(0.000000,700.000000) scale(0.100000,-0.100000)" fill="#FFFFFF" stroke="none">
<path d="M3200 6389 c-478 -54 -917 -212 -1301 -468 -184 -123 -281 -202 -445
-366 -231 -229 -398 -457 -539 -735 -218 -430 -315 -838 -315 -1320 0 -483 97
-889 315 -1320 141 -278 308 -506 539 -735 164 -164 261 -243 445 -366 389
-259 826 -415 1316 -469 116 -13 454 -13 570 0 379 42 692 133 1018 296 808
405 1383 1169 1552 2060 63 332 60 761 -6 1094 -91 459 -287 882 -579 1250
-98 124 -330 358 -450 454 -206 164 -504 338 -745 434 -251 100 -499 160 -790
192 -106 12 -478 11 -585 -1z m-988 -1368 c13 -5 57 -38 99 -73 42 -35 161
-133 264 -218 206 -169 291 -240 677 -558 142 -117 263 -212 270 -212 7 0 65
44 129 98 64 53 159 132 210 174 52 42 178 146 280 230 102 84 243 200 314
258 70 58 180 149 244 202 64 54 128 100 143 104 45 9 86 -5 113 -40 l25 -33
0 -1460 0 -1460 -32 -36 c-45 -47 -70 -53 -113 -27 -68 42 -65 6 -65 770 0
485 -3 690 -11 690 -6 0 -39 -24 -73 -52 -70 -59 -287 -238 -531 -438 -88 -72
-171 -141 -184 -152 -143 -122 -404 -330 -425 -338 -17 -6 -35 -6 -51 0 -14 5
-112 81 -217 167 -199 165 -299 246 -383 315 -47 38 -392 323 -569 470 -45 37
-87 68 -93 68 -10 0 -13 -158 -15 -721 l-3 -720 -43 -41 c-35 -32 -48 -39 -69
-33 -35 8 -69 35 -82 63 -8 16 -11 468 -11 1483 l0 1461 34 34 c30 30 40 34
89 34 31 0 66 -4 79 -9z"></path>
<path d="M2220 4248 l0 -493 83 -67 c93 -75 120 -98 222 -183 40 -33 116 -96
170 -140 54 -44 157 -129 230 -190 73 -60 213 -175 310 -255 98 -80 201 -164
228 -187 28 -24 54 -43 58 -43 4 0 67 50 141 110 162 135 242 200 378 312 58
48 202 167 321 265 119 98 259 214 312 257 l97 79 0 488 c0 295 -4 490 -9 494
-6 3 -41 -21 -78 -52 -37 -32 -131 -110 -208 -173 -77 -63 -149 -122 -160
-132 -271 -227 -746 -613 -764 -620 -42 -16 -73 0 -191 98 -63 52 -155 128
-205 169 -49 40 -276 227 -503 414 -227 188 -417 341 -422 341 -6 0 -10 -178
-10 -492z"></path>
</g>
</svg>